<svg width="96" height="96" viewBox="0 0 96 96" fill="none" xmlns="http://www.w3.org/2000/svg">
  <defs>
    <linearGradient id="g" x1="12" y1="12" x2="84" y2="84" gradientUnits="userSpaceOnUse">
      <stop stop-color="#7C3AED" />
      <stop offset="0.55" stop-color="#06B6D4" />
      <stop offset="1" stop-color="#F59E0B" />
    </linearGradient>
    <filter id="s" x="-20%" y="-20%" width="140%" height="140%" color-interpolation-filters="sRGB">
      <feDropShadow dx="0" dy="10" stdDeviation="10" flood-color="#000000" flood-opacity="0.35" />
    </filter>
  </defs>
  <rect x="10" y="10" width="76" height="76" rx="22" fill="url(#g)" filter="url(#s)" />
  <path
    d="M30.6 33.2h6.2l10.7 26.2 10.7-26.2h6.2L52.8 65.8h-9.1L30.6 33.2Z"
    fill="white"
    fill-opacity="0.96"
  />
  <path
    d="M66.2 53.4c0 7.3-5.5 12.8-13.6 12.8-4.1 0-7.5-1.3-10.1-3.7l3.6-4.1c1.8 1.6 4 2.5 6.6 2.5 4.4 0 7.2-2.8 7.2-7.1v-.6h-7.8v-4.9h14.1v4.9Z"
    fill="white"
    fill-opacity="0.96"
  />
</svg>

